<svg xmlns="http://www.w3.org/2000/svg" xml:space="preserve" width="447" height="615">
  <path fill="#FFCA05" d="M153.495 511.725c-16.147 0-29.237-13.136-29.237-29.337 0-16.202 13.09-29.335 29.237-29.335h104.491V313.394H153.495c-16.147 0-29.237-13.09-29.237-29.237s13.09-29.237 29.237-29.237h170.994v-75.948H153.495c-16.147 0-29.237-13.134-29.237-29.335 0-16.203 13.09-29.337 29.237-29.337h200.231c16.146 0 29.237 13.134 29.237 29.337v332.752c0 16.201-13.091 29.337-29.237 29.337H153.495v-.001zM84.116 313.394c16.143 0 29.237-13.092 29.237-29.237 0-16.146-13.094-29.237-29.237-29.237-16.146 0-29.237 13.091-29.237 29.237 0 16.144 13.092 29.237 29.237 29.237zm0 198.331c16.143 0 29.237-13.094 29.237-29.237 0-16.146-13.094-29.237-29.237-29.237-16.146 0-29.237 13.092-29.237 29.237 0 16.143 13.092 29.237 29.237 29.237zm0-332.953c16.143 0 29.237-13.092 29.237-29.236s-13.094-29.237-29.237-29.237c-16.146 0-29.237 13.093-29.237 29.237 0 16.145 13.092 29.236 29.237 29.236z"/>
</svg>